{"title":"Silent Witness S19 E09-E10","uid":13411069,"size":1327122319,"categoryP":"video","categoryS":"tv_shows","magnet":"?xt=urn:btih:e4a6538e2baebd2ffbc508296ef8d8390ce6d18b&amp;dn=Silent+Witness+S19+E09-E10&amp;tr=udp%3A%2F%2Ftracker.leechers-paradise.org%3A6969&amp;tr=udp%3A%2F%2Fzer0day.ch%3A1337&amp;tr=udp%3A%2F%2Fopen.demonii.com%3A1337&amp;tr=udp%3A%2F%2Ftracker.coppersurfer.tk%3A6969&amp;tr=udp%3A%2F%2Fexodus.desync.com%3A6969","seeders":1,"leechers":0,"uploader":"RedBaron58","files":2,"time":1454463321,"description":"Silent Witness S19 E09- E10 x264 mp4\r\n  \nhttp://www.imdb.com/title/tt0115355/\r\n\r\n\r\n\r\nThank you for your kind comments and feedback on my other torrents, your feedback is welcome.\r\n\r\n\r\nAbout these episodes:\r\nThe Lyell team investigates the murder of a family shot while picnicking by a river, \r\nand discover the female victim was in the middle of a bitter divorce. \r\nLocal detective Malcolm Guillam is brought in to help and when the present-day murder \r\nreminds him of an unsolved case that haunts him, he sees an opportunity to redeem himself. \r\nHowever, DCI Sally Butcher is convinced that the woman's estranged husband is responsible \r\nfor the murder and has no time for Guillam's trip down memory lane.\r\n\r\n\r\nI hope you enjoy.\r\n\r\n\r\nTechnical: (Both episodes are encoded to the same settings)\r\n\r\nGeneral\r\nComplete name                            : G:Silent Witness S19 E09-E10Silent Witness S19E09 - Rivers Edge pt1 x264 RB58.mp4\r\nFormat                                   : MPEG-4\r\nFormat profile                           : Base Media\r\nCodec ID                                 : isom\r\nFile size                                : 629 MiB\r\nDuration                                 : 57mn 52s\r\nOverall bit rate                         : 1 521 Kbps\r\nWriting application                      : Lavf54.63.104\r\n\r\nVideo\r\nID                                       : 1\r\nFormat                                   : AVC\r\nFormat/Info                              : Advanced Video Codec\r\nFormat profile                           :   \r\nFormat settings, CABAC                   : Yes\r\nFormat settings, ReFrames                : 4 frames\r\nCodec ID                                 : avc1\r\nCodec ID/Info                            : Advanced Video Coding\r\nDuration                                 : 57mn 52s\r\nBit rate                                 : 1 400 Kbps\r\nWidth                                    : 832 pixels\r\nHeight                                   : 468 pixels\r\nDisplay aspect ratio                     : 16:9\r\nFrame rate mode                          : Constant\r\nFrame rate                               : 25.000 fps\r\nColor space                              : YUV\r\nChroma subsampling                       : 4:2:0\r\nBit depth                                : 8 bits\r\nScan type                                : Progressive\r\nBits/(Pixel*Frame)                       : 0.144\r\nStream size                              : 580 MiB (92%)\r\nWriting library                          : x264 core 123 r2189 35cf912\r\nEncoding settings                        : cabac=1 / ref=3 / deblock=1:0:0\r\n\r\nAudio\r\nID                                       : 2\r\nFormat                                   : AAC\r\nFormat/Info                              : Advanced Audio Codec\r\nFormat profile                           : LC\r\nCodec ID                                 : 40\r\nDuration                                 : 57mn 52s\r\nBit rate mode                            : Constant\r\nBit rate                                 : 112 Kbps\r\nChannel(s)                               : 2 channels\r\nChannel positions                        : Front: L R\r\nSampling rate                            : 48.0 KHz\r\nCompression mode                         : Lossy\r\nStream size                              : 46.3 MiB (7%)","torrent":{"xt":"urn:btih:e4a6538e2baebd2ffbc508296ef8d8390ce6d18b","amp;dn":"Silent+Witness+S19+E09-E10","amp;tr":["udp%3A%2F%2Ftracker.leechers-paradise.org%3A6969","udp%3A%2F%2Fzer0day.ch%3A1337","udp%3A%2F%2Fopen.demonii.com%3A1337","udp%3A%2F%2Ftracker.coppersurfer.tk%3A6969","udp%3A%2F%2Fexodus.desync.com%3A6969"],"infoHash":"e4a6538e2baebd2ffbc508296ef8d8390ce6d18b","infoHashBuffer":{"type":"Buffer","data":[228,166,83,142,43,174,189,47,251,197,8,41,110,248,216,57,12,230,209,139]},"announce":[],"urlList":[]}}